<svg width="16" height="16" viewBox="0 0 16 16" fill="none" xmlns="http://www.w3.org/2000/svg">
<path d="M1.19719 0.0494423C0.58766 0.202521 0.141833 0.69307 0.0303767 1.32974C0.00251251 1.48282 -0.00445353 1.83769 0.00251251 2.33867C0.0199276 3.18409 0.0303767 3.24323 0.267222 3.70595C0.385645 3.94252 0.538898 4.11648 1.70223 5.33763C2.28041 5.94299 2.55208 6.25263 2.62523 6.39527L2.72972 6.59358L2.75062 8.19395C2.77151 9.98915 2.76803 9.97524 3.03274 10.3684C3.19993 10.6189 3.48902 10.8485 3.78507 10.9633C3.94529 11.0294 4.05327 11.0433 4.34932 11.0433C4.8056 11.0468 4.9484 10.9911 5.5858 10.5736C6.06994 10.2536 6.27892 10.0587 6.41476 9.78737C6.60632 9.4151 6.61329 9.33857 6.61329 8.02C6.61329 6.70839 6.62722 6.58314 6.79789 6.32917C6.83968 6.26307 7.32382 5.81774 7.86718 5.33415C9.2778 4.08517 9.29173 4.07125 9.5042 3.6468C9.62958 3.39631 9.69576 3.20496 9.73059 3.01013C9.7898 2.6831 9.80025 1.65329 9.74801 1.32278C9.647 0.696549 9.15241 0.171209 8.53592 0.0390053C8.26076 -0.0201397 1.43403 -0.00970173 1.19719 0.0494423ZM8.37221 1.20449C8.60209 1.31235 8.61602 1.36453 8.61602 2.14384V2.84314L8.4767 3.11103C8.34087 3.365 8.29907 3.40675 7.20888 4.37045C6.58891 4.91666 6.02814 5.42809 5.96196 5.50811C5.81916 5.6751 5.63804 6.02649 5.54748 6.29786C5.49524 6.46485 5.48479 6.65272 5.47434 7.79386C5.46389 8.90716 5.45344 9.11938 5.40468 9.23071C5.3594 9.33857 5.27232 9.40815 4.91357 9.63777C4.67324 9.79084 4.43988 9.91609 4.3946 9.91609C4.26573 9.91609 4.0881 9.82911 4.00799 9.72474C3.93136 9.63081 3.93136 9.60993 3.93136 8.28441C3.93136 7.54336 3.91395 6.80928 3.89305 6.64924C3.85125 6.30134 3.70496 5.9082 3.51688 5.61944C3.44025 5.50463 2.92128 4.93406 2.364 4.34958C1.61515 3.56331 1.32954 3.23975 1.2564 3.09711C1.16584 2.91272 1.16236 2.88141 1.15191 2.27953C1.14494 1.9351 1.14843 1.60459 1.16236 1.54196C1.18674 1.41324 1.32954 1.22537 1.43752 1.18362C1.47931 1.16622 3.02926 1.15231 4.88223 1.15231C7.89504 1.14883 8.27121 1.15579 8.37221 1.20449Z" fill="#262A41"/>
<path d="M11.5069 0.210105C11.2597 0.286644 11.082 0.578886 11.1168 0.846775C11.1586 1.15293 11.3502 1.2921 11.8518 1.37212C12.3255 1.44865 12.942 1.61217 13.1335 1.70959C13.8475 2.06793 14.3909 2.78462 14.6243 3.6857C14.8402 4.4998 14.8681 5.0147 14.8681 8.02062C14.8681 9.41573 14.8506 10.7726 14.8332 11.03C14.7671 11.8998 14.6277 12.4982 14.363 13.0374C13.8197 14.1473 12.8305 14.6796 11.0576 14.8222C10.469 14.8674 5.54401 14.8674 4.95538 14.8222C2.40929 14.6169 1.37484 13.5767 1.17979 11.03C1.16237 10.7726 1.14496 9.94803 1.14496 9.20351C1.14496 7.85015 1.14496 7.84667 1.06485 7.71446C0.946424 7.51964 0.817553 7.44657 0.58419 7.44657C0.368243 7.44657 0.218473 7.52311 0.086118 7.70055C0.0164576 7.79448 0.0129745 7.84319 0.00252547 9.09218C-0.0148896 11.2248 0.0756689 12.1016 0.417005 13.0722C0.932492 14.53 2.00875 15.4345 3.65622 15.7929C4.50259 15.9738 4.59663 15.9807 7.58855 15.9947C10.5282 16.012 11.2457 15.9912 11.9632 15.8694C13.9381 15.5285 15.077 14.6204 15.6343 12.947C15.7841 12.4947 15.8468 12.2164 15.9374 11.5867C15.9931 11.1935 16 10.8491 16 8.05541C16 4.76073 15.9931 4.61461 15.8259 3.77267C15.6065 2.69416 15.199 1.90789 14.5128 1.27122C13.9555 0.75284 13.44 0.516263 12.4369 0.314477C11.796 0.18923 11.6393 0.171835 11.5069 0.210105Z" fill="#262A41"/>
<path d="M8.45574 8.25755C8.39304 8.2993 8.30249 8.38975 8.25721 8.45585C8.18755 8.55675 8.1771 8.60893 8.18755 8.77941C8.20496 9.01946 8.28159 9.13775 8.49753 9.24908L8.65079 9.3291L10.6605 9.31866C12.6354 9.30823 12.6702 9.30823 12.7677 9.23517C12.9454 9.10296 13.022 8.95336 13.022 8.73766C13.022 8.50456 12.9488 8.37584 12.7538 8.25755L12.6214 8.17753H10.5978H8.57416L8.45574 8.25755Z" fill="#262A41"/>
<path d="M6.99633 11.2142C6.82218 11.3046 6.68286 11.5273 6.68286 11.7047C6.68634 11.8682 6.7978 12.0874 6.93016 12.1813L7.04858 12.2648L9.82803 12.2753L12.611 12.2822L12.7468 12.2057C12.9419 12.0978 13.022 11.9517 13.022 11.7186C13.022 11.5064 12.9419 11.3533 12.7677 11.2246C12.6702 11.1515 12.6458 11.1515 9.90814 11.1411L7.14959 11.1341L6.99633 11.2142Z" fill="#262A41"/>
</svg>
