<svg width="22" height="21" viewBox="0 0 22 21" fill="none" xmlns="http://www.w3.org/2000/svg">
<path d="M22 6.67276C22 7.68688 21.7653 8.77438 21.3015 9.90573C21.153 10.2679 20.8148 10.4862 20.4582 10.4862C20.3381 10.4862 20.2162 10.4614 20.0988 10.409C19.6323 10.2031 19.4159 9.64267 19.6148 9.15849C19.9806 8.26447 20.1667 7.42858 20.1667 6.67276C20.1667 4.08982 18.2774 1.90718 16.0417 1.90718C13.9929 1.90718 12.826 2.76975 12.0395 3.52176L8.53417 6.90437C8.21058 7.24177 8.13358 7.80888 8.38475 8.17202C8.54883 8.40934 8.78992 8.55231 9.06217 8.57518C9.33258 8.60092 9.59475 8.49798 9.7845 8.29878L13.6098 4.49108C13.9728 4.12794 14.5548 4.14034 14.9059 4.52063C15.2561 4.90092 15.2432 5.50424 14.8775 5.86833L13.7427 6.99778L18.0941 10.9685C19.1134 11.8987 19.3646 13.4609 18.678 14.6017C18.2554 15.3032 17.5652 15.775 16.7851 15.8942C16.7319 15.9018 16.6797 15.9085 16.6265 15.9132C16.6228 16.4041 16.4972 16.8902 16.2397 17.3191C15.8171 18.0206 15.1268 18.4924 14.3468 18.6115C14.1772 18.6363 14.0085 18.6468 13.8398 18.6382C13.7903 19.0023 13.6712 19.3568 13.4778 19.678C13.0552 20.3795 12.3741 21 11.1934 21C10.5453 21 9.9165 20.757 9.42333 20.3061L6.578 17.6527C3.57592 14.8314 0 10.6387 0 6.67276C0 2.99374 2.673 0.000953104 5.95833 0.000953104C6.7155 0.000953104 7.45525 0.161077 8.15558 0.477511C8.62033 0.687196 8.83392 1.24858 8.63225 1.73086C8.43058 2.21314 7.89067 2.43426 7.42683 2.22648C6.9575 2.01489 6.46342 1.90814 5.95742 1.90814C3.72167 1.90814 1.83242 4.09077 1.83242 6.67372C1.83242 9.22235 3.95267 12.6183 7.8045 16.2373L10.6407 18.8812C10.8212 19.0461 11.0715 19.1224 11.319 19.0852C11.5702 19.0471 11.7856 18.8993 11.924 18.6677C12.1348 18.316 12.0303 17.7937 11.6847 17.4792L8.745 14.5731C8.37925 14.211 8.36367 13.6086 8.71108 13.2264C9.05942 12.8451 9.63875 12.8289 10.0063 13.1892L13.4182 16.5385C13.5822 16.6872 13.8362 16.7653 14.08 16.7253C14.3312 16.6872 14.5466 16.5385 14.685 16.3078C14.8958 15.9561 14.7913 15.4338 14.4458 15.1183L11.1824 12.0464C10.8084 11.6947 10.7782 11.0933 11.1155 10.7035C11.4519 10.3137 12.0303 10.2794 12.4071 10.6282L15.8373 13.8021C16.0206 13.9698 16.2718 14.048 16.5183 14.0079C16.7695 13.9698 16.9849 13.8211 17.1233 13.5905C17.3342 13.2388 17.2297 12.7165 16.8841 12.401L12.4126 8.3207L11.0651 9.66174C10.5087 10.2412 9.72308 10.5424 8.91275 10.4757C8.10792 10.408 7.37183 9.97436 6.89517 9.28525C6.12058 8.1663 6.27733 6.55267 7.26 5.53093L10.7937 2.12068C11.7489 1.20855 13.3274 0 16.0398 0C19.3252 0 21.9982 2.99278 21.9982 6.67181L22 6.67276Z" fill="#27AAE1"/>
</svg>
